<?xml version="1.0" encoding="utf-8"?>
<svg viewBox="163.163 170.566 134.176 45.762" width="134.176px" height="45.762px" xmlns="http://www.w3.org/2000/svg">
  <rect style="fill: rgb(223, 173, 35); stroke-linejoin: round;" x="163.163" y="170.566" width="134.176" height="45.762" rx="11.183" ry="11.183"/>
  <path d="M 185.44 203.224 L 180.83 203.224 L 180.83 183.314 L 185.44 183.314 C 186.82 183.334 188.057 183.571 189.15 184.024 C 190.237 184.471 191.157 185.097 191.91 185.904 C 192.663 186.711 193.237 187.677 193.63 188.804 C 194.03 189.931 194.233 191.177 194.24 192.544 L 194.24 194.014 C 194.233 195.381 194.03 196.624 193.63 197.744 C 193.237 198.871 192.663 199.837 191.91 200.644 C 191.157 201.451 190.237 202.081 189.15 202.534 C 188.057 202.987 186.82 203.217 185.44 203.224 Z M 185.44 185.394 L 183.4 185.394 L 183.4 201.164 L 185.44 201.164 C 186.513 201.151 187.443 200.961 188.23 200.594 C 189.01 200.221 189.657 199.717 190.17 199.084 C 190.69 198.444 191.073 197.691 191.32 196.824 C 191.573 195.957 191.703 195.021 191.71 194.014 L 191.71 192.514 C 191.703 191.507 191.573 190.574 191.32 189.714 C 191.06 188.847 190.677 188.097 190.17 187.464 C 189.657 186.831 189.01 186.334 188.23 185.974 C 187.443 185.607 186.513 185.414 185.44 185.394 ZM 197.182 195.994 L 197.182 195.694 C 197.182 194.627 197.336 193.634 197.642 192.714 C 197.956 191.801 198.402 191.007 198.982 190.334 C 199.556 189.661 200.259 189.127 201.092 188.734 C 201.919 188.347 202.852 188.154 203.892 188.154 C 204.939 188.154 205.879 188.347 206.712 188.734 C 207.552 189.127 208.259 189.661 208.832 190.334 C 209.412 191.007 209.859 191.801 210.172 192.714 C 210.479 193.634 210.632 194.627 210.632 195.694 L 210.632 195.994 C 210.632 197.061 210.479 198.047 210.172 198.954 C 209.859 199.867 209.412 200.661 208.832 201.334 C 208.259 202.007 207.556 202.537 206.722 202.924 C 205.896 203.304 204.962 203.494 203.922 203.494 C 202.876 203.494 201.932 203.304 201.092 202.924 C 200.259 202.537 199.556 202.007 198.982 201.334 C 198.402 200.661 197.956 199.867 197.642 198.954 C 197.336 198.047 197.182 197.061 197.182 195.994 Z M 199.712 195.694 L 199.712 195.994 C 199.712 196.721 199.799 197.414 199.972 198.074 C 200.146 198.734 200.406 199.317 200.752 199.824 C 201.106 200.324 201.546 200.721 202.072 201.014 C 202.606 201.301 203.222 201.444 203.922 201.444 C 204.616 201.444 205.222 201.301 205.742 201.014 C 206.269 200.721 206.709 200.324 207.062 199.824 C 207.409 199.317 207.669 198.734 207.842 198.074 C 208.016 197.414 208.102 196.721 208.102 195.994 L 208.102 195.694 C 208.102 194.974 208.016 194.284 207.842 193.624 C 207.662 192.957 207.396 192.374 207.042 191.874 C 206.696 191.374 206.259 190.977 205.732 190.684 C 205.206 190.384 204.592 190.234 203.892 190.234 C 203.192 190.234 202.582 190.384 202.062 190.684 C 201.542 190.977 201.106 191.374 200.752 191.874 C 200.406 192.374 200.146 192.957 199.972 193.624 C 199.799 194.284 199.712 194.974 199.712 195.694 ZM 214.695 188.434 L 216.965 188.434 L 217.145 190.614 C 217.678 189.854 218.338 189.257 219.125 188.824 C 219.905 188.391 220.778 188.167 221.745 188.154 C 222.525 188.154 223.231 188.264 223.865 188.484 C 224.498 188.704 225.038 189.047 225.485 189.514 C 225.931 189.974 226.275 190.564 226.515 191.284 C 226.755 191.997 226.875 192.847 226.875 193.834 L 226.875 203.224 L 224.345 203.224 L 224.345 193.884 C 224.345 193.231 224.271 192.674 224.125 192.214 C 223.978 191.761 223.761 191.394 223.475 191.114 C 223.188 190.827 222.838 190.621 222.425 190.494 C 222.011 190.367 221.535 190.304 220.995 190.304 C 220.148 190.304 219.405 190.517 218.765 190.944 C 218.118 191.364 217.605 191.921 217.225 192.614 L 217.225 203.224 L 214.695 203.224 L 214.695 188.434 ZM 243.857 203.224 L 241.217 203.224 C 241.117 203.031 241.037 202.791 240.977 202.504 C 240.917 202.217 240.874 201.921 240.847 201.614 C 240.594 201.867 240.31 202.107 239.997 202.334 C 239.677 202.561 239.33 202.761 238.957 202.934 C 238.577 203.107 238.174 203.244 237.747 203.344 C 237.314 203.444 236.857 203.494 236.377 203.494 C 235.59 203.494 234.88 203.381 234.247 203.154 C 233.614 202.927 233.077 202.621 232.637 202.234 C 232.197 201.847 231.857 201.387 231.617 200.854 C 231.37 200.321 231.247 199.744 231.247 199.124 C 231.247 198.311 231.41 197.601 231.737 196.994 C 232.057 196.381 232.514 195.871 233.107 195.464 C 233.7 195.057 234.414 194.754 235.247 194.554 C 236.08 194.354 237.014 194.254 238.047 194.254 L 240.807 194.254 L 240.807 193.094 C 240.807 192.647 240.724 192.247 240.557 191.894 C 240.397 191.534 240.167 191.231 239.867 190.984 C 239.56 190.731 239.194 190.537 238.767 190.404 C 238.334 190.264 237.847 190.194 237.307 190.194 C 236.807 190.194 236.357 190.257 235.957 190.384 C 235.564 190.511 235.23 190.681 234.957 190.894 C 234.684 191.101 234.47 191.347 234.317 191.634 C 234.17 191.921 234.097 192.221 234.097 192.534 L 231.547 192.534 C 231.56 191.994 231.7 191.464 231.967 190.944 C 232.234 190.424 232.62 189.957 233.127 189.544 C 233.634 189.131 234.25 188.797 234.977 188.544 C 235.704 188.284 236.527 188.154 237.447 188.154 C 238.28 188.154 239.057 188.257 239.777 188.464 C 240.497 188.671 241.12 188.981 241.647 189.394 C 242.174 189.807 242.587 190.324 242.887 190.944 C 243.187 191.564 243.337 192.291 243.337 193.124 L 243.337 199.994 C 243.337 200.487 243.384 201.011 243.477 201.564 C 243.564 202.117 243.69 202.597 243.857 203.004 L 243.857 203.224 Z M 236.747 201.294 C 237.24 201.294 237.7 201.231 238.127 201.104 C 238.554 200.977 238.944 200.807 239.297 200.594 C 239.65 200.387 239.954 200.151 240.207 199.884 C 240.46 199.611 240.66 199.331 240.807 199.044 L 240.807 196.044 L 238.457 196.044 C 236.977 196.044 235.827 196.264 235.007 196.704 C 234.187 197.137 233.777 197.824 233.777 198.764 C 233.777 199.131 233.84 199.467 233.967 199.774 C 234.087 200.087 234.27 200.354 234.517 200.574 C 234.764 200.801 235.074 200.977 235.447 201.104 C 235.82 201.231 236.254 201.294 236.747 201.294 ZM 251.739 184.844 L 254.289 184.844 L 254.289 188.434 L 259.919 188.434 L 259.919 190.384 L 254.289 190.384 L 254.289 198.424 C 254.289 198.997 254.363 199.471 254.509 199.844 C 254.649 200.217 254.849 200.517 255.109 200.744 C 255.363 200.964 255.656 201.121 255.989 201.214 C 256.323 201.307 256.676 201.354 257.049 201.354 C 257.323 201.354 257.606 201.337 257.899 201.304 C 258.186 201.271 258.469 201.231 258.749 201.184 C 259.029 201.137 259.289 201.091 259.529 201.044 C 259.769 200.991 259.969 200.947 260.129 200.914 L 260.479 202.704 C 260.273 202.831 260.016 202.944 259.709 203.044 C 259.409 203.137 259.083 203.217 258.729 203.284 C 258.376 203.351 257.999 203.404 257.599 203.444 C 257.206 203.477 256.813 203.494 256.419 203.494 C 255.766 203.494 255.153 203.401 254.579 203.214 C 254.013 203.027 253.519 202.731 253.099 202.324 C 252.679 201.924 252.349 201.401 252.109 200.754 C 251.863 200.114 251.739 199.337 251.739 198.424 L 251.739 190.384 L 247.859 190.384 L 247.859 188.434 L 251.739 188.434 L 251.739 184.844 ZM 271.632 203.494 C 270.598 203.494 269.645 203.317 268.772 202.964 C 267.898 202.611 267.152 202.114 266.532 201.474 C 265.912 200.834 265.432 200.077 265.092 199.204 C 264.745 198.331 264.572 197.377 264.572 196.344 L 264.572 195.774 C 264.572 194.581 264.762 193.511 265.142 192.564 C 265.522 191.624 266.028 190.827 266.662 190.174 C 267.295 189.521 268.015 189.021 268.822 188.674 C 269.628 188.327 270.458 188.154 271.312 188.154 C 272.378 188.154 273.308 188.341 274.102 188.714 C 274.902 189.081 275.565 189.591 276.092 190.244 C 276.618 190.897 277.012 191.664 277.272 192.544 C 277.532 193.431 277.662 194.387 277.662 195.414 L 277.662 196.554 L 267.102 196.554 C 267.128 197.227 267.255 197.861 267.482 198.454 C 267.715 199.047 268.035 199.564 268.442 200.004 C 268.848 200.444 269.335 200.794 269.902 201.054 C 270.468 201.307 271.092 201.434 271.772 201.434 C 272.672 201.434 273.475 201.251 274.182 200.884 C 274.882 200.524 275.465 200.041 275.932 199.434 L 277.472 200.644 C 277.225 201.017 276.918 201.374 276.552 201.714 C 276.185 202.054 275.758 202.357 275.272 202.624 C 274.792 202.884 274.245 203.094 273.632 203.254 C 273.018 203.414 272.352 203.494 271.632 203.494 Z M 271.312 190.234 C 270.798 190.234 270.315 190.327 269.862 190.514 C 269.402 190.701 268.992 190.974 268.632 191.334 C 268.265 191.694 267.955 192.137 267.702 192.664 C 267.455 193.184 267.282 193.787 267.182 194.474 L 275.132 194.474 L 275.132 194.284 C 275.105 193.791 275.012 193.304 274.852 192.824 C 274.692 192.337 274.458 191.904 274.152 191.524 C 273.838 191.137 273.448 190.827 272.982 190.594 C 272.515 190.354 271.958 190.234 271.312 190.234 Z" transform="matrix(1, 0, 0, 1, 0, 0)" style="white-space: pre;"/>
</svg>