<?xml version="1.0" encoding="UTF-8" standalone="no"?>
<svg
   xmlns:dc="http://purl.org/dc/elements/1.1/"
   xmlns:cc="http://creativecommons.org/ns#"
   xmlns:rdf="http://www.w3.org/1999/02/22-rdf-syntax-ns#"
   xmlns:svg="http://www.w3.org/2000/svg"
   xmlns="http://www.w3.org/2000/svg"
   xmlns:sodipodi="http://sodipodi.sourceforge.net/DTD/sodipodi-0.dtd"
   xmlns:inkscape="http://www.inkscape.org/namespaces/inkscape"
   version="1.1"
   width="150"
   height="150"
   viewBox="-0.9 -0.9 1.8 1.8"
   id="svg298"
   sodipodi:docname="9.svg"
   inkscape:version="0.92.2 (5c3e80d, 2017-08-06)">
  <metadata
     id="metadata304">
    <rdf:RDF>
      <cc:Work
         rdf:about="">
        <dc:format>image/svg+xml</dc:format>
        <dc:type
           rdf:resource="http://purl.org/dc/dcmitype/StillImage" />
      </cc:Work>
    </rdf:RDF>
  </metadata>
  <defs
     id="defs302" />
  <sodipodi:namedview
     pagecolor="#ffffff"
     bordercolor="#666666"
     borderopacity="1"
     objecttolerance="10"
     gridtolerance="10"
     guidetolerance="10"
     inkscape:pageopacity="0"
     inkscape:pageshadow="2"
     inkscape:window-width="1920"
     inkscape:window-height="1147"
     id="namedview300"
     showgrid="false"
     inkscape:zoom="0.78666667"
     inkscape:cx="128.28608"
     inkscape:cy="343.80385"
     inkscape:window-x="-8"
     inkscape:window-y="-8"
     inkscape:window-maximized="1"
     inkscape:current-layer="svg298" />
  <g
     style="stroke-width:0.1;stroke-linejoin:round;opacity:1"
     id="g240">
    <polygon
       fill="#000000"
       stroke="#000000"
       points="-4.9165444344952E-17,-0.71734170954349 0.70405037145575,-0.41272706360467 6.3108540577985E-17,-0.021725090572532 -0.70405037145575,-0.41272706360467"
       id="polygon234" />
    <polygon
       fill="#000000"
       stroke="#000000"
       points="6.3108540577985E-17,-0.021725090572532 0.70405037145575,-0.41272706360467 0.62948028357061,0.36901272915735 5.5589468959362E-17,0.81107056444244"
       id="polygon236" />
    <polygon
       fill="#000000"
       stroke="#000000"
       points="-0.70405037145575,-0.41272706360467 6.3108540577985E-17,-0.021725090572532 5.5589468959362E-17,0.81107056444244 -0.62948028357061,0.36901272915735"
       id="polygon238" />
  </g>
  <g
     style="opacity:1;stroke-opacity:0.5;stroke-width:0;stroke-linejoin:round"
     id="g296">
    <polygon
       fill="#888888"
       stroke="#000000"
       points="-4.9439549272153E-17,-0.74757064564692 0.19598754651203,-0.66277461469571 -1.6979580126642E-17,-0.57123720961754 -0.19598754651203,-0.66277461469571"
       id="polygon242" />
    <polygon
       fill="#888888"
       stroke="#000000"
       points="0.23200530924361,-0.64654708450724 0.44357407294753,-0.55500967942906 0.24823152717746,-0.45589370157761 0.03601776273158,-0.55500967942906"
       id="polygon244" />
    <polygon
       fill="#888888"
       stroke="#000000"
       points="0.48258385553552,-0.53743199405155 0.71166883865722,-0.4383160162001 0.51778341539206,-0.3306396536664 0.28724130976545,-0.43831601620009"
       id="polygon246" />
    <polygon
       fill="#888888"
       stroke="#000000"
       points="-0.23200530924361,-0.64654708450724 -0.03601776273158,-0.55500967942906 -0.24823152717746,-0.45589370157761 -0.44357407294753,-0.55500967942906"
       id="polygon248" />
    <polygon
       fill="#FFFF00"
       stroke="#000000"
       points="-1.1906711768916E-17,-0.53743199405155 0.21221376444588,-0.43831601620009 1.3125827139793E-17,-0.3306396536664 -0.21221376444588,-0.43831601620009"
       id="polygon250" />
    <polygon
       fill="#888888"
       stroke="#000000"
       points="0.25135344771691,-0.4192120352454 0.48189555334352,-0.31153567271171 0.27050899589682,-0.1941398664099 0.03913968327103,-0.31153567271171"
       id="polygon252" />
    <polygon
       fill="#888888"
       stroke="#000000"
       points="-0.48258385553552,-0.53743199405155 -0.28724130976545,-0.43831601620009 -0.51778341539206,-0.3306396536664 -0.71166883865722,-0.43831601620009"
       id="polygon254" />
    <polygon
       fill="#00DD00"
       stroke="#000000"
       points="-0.25135344771691,-0.4192120352454 -0.03913968327103,-0.31153567271171 -0.27050899589682,-0.1941398664099 -0.48189555334352,-0.31153567271171"
       id="polygon256" />
    <polygon
       fill="#888888"
       stroke="#000000"
       points="1.9219742927126E-17,-0.29069716027551 0.23136931262579,-0.1733013539737 6.3251582941518E-17,-0.044807908897155 -0.23136931262579,-0.1733013539737"
       id="polygon258" />
    <polygon
       fill="#888888"
       stroke="#000000"
       points="0.019572311898468,-0.01096266104553 0.25094162452426,-0.13945610612208 0.24139184674777,0.12672756322786 0.019572311898468,0.26171620101574"
       id="polygon260" />
    <polygon
       fill="#888888"
       stroke="#000000"
       points="0.28930534489087,-0.16171652284677 0.50069190233757,-0.27911232914857 0.48317508531013,-0.019324131300046 0.27975556711438,0.10446714650317"
       id="polygon262" />
    <polygon
       fill="#888888"
       stroke="#000000"
       points="0.53586287162127,-0.29952357725519 0.72974829488643,-0.40719993978888 0.70556381569579,-0.15366705164652 0.51834605459384,-0.039735379406663"
       id="polygon264" />
    <polygon
       fill="#888888"
       stroke="#000000"
       points="0.018796486168384,0.30740091161998 0.24061602101769,0.1724122738321 0.23182332941007,0.41749346528561 0.018796486168384,0.55752511994163"
       id="polygon266" />
    <polygon
       fill="#0077FF"
       stroke="#000000"
       points="0.27748498154717,0.14913168479738 0.48090449974292,0.025340406994164 0.46472097442439,0.26535483831193 0.26869228993956,0.39421287625089"
       id="polygon268" />
    <polygon
       fill="#888888"
       stroke="#000000"
       points="0.51482272047627,0.0039202514920256 0.70204048157822,-0.11001142074783 0.6796261786066,0.12496419825545 0.49863919515774,0.24393468280979"
       id="polygon270" />
    <polygon
       fill="#0077FF"
       stroke="#000000"
       points="0.018079821190449,0.59957070958542 0.23110666443214,0.4595390549294 0.22298446134887,0.68593152923737 0.018079821190449,0.82982754001392"
       id="polygon272" />
    <polygon
       fill="#0077FF"
       stroke="#000000"
       points="0.26659321028119,0.43546258559693 0.46262189476603,0.30660454765797 0.44762501691219,0.52902006212629 0.25847100719792,0.6618550599049"
       id="polygon274" />
    <polygon
       fill="#0077FF"
       stroke="#000000"
       points="0.49537315323635,0.28438159074811 0.67636013668521,0.16541110619376 0.65552852022793,0.38379496484358 0.4803762753825,0.50679710521643"
       id="polygon276" />
    <polygon
       fill="#888888"
       stroke="#000000"
       points="-0.73033661801848,-0.40664800069716 -0.53645119475332,-0.29897163816347 -0.51893437772588,-0.039183440314942 -0.70615213882784,-0.1531151125548"
       id="polygon278" />
    <polygon
       fill="#FFA500"
       stroke="#000000"
       points="-0.50139487638912,-0.27854802283962 -0.29000831894242,-0.16115221653782 -0.28045854116593,0.10503145281212 -0.48387805936169,-0.018759824991097"
       id="polygon280" />
    <polygon
       fill="#888888"
       stroke="#000000"
       points="-0.25178425197513,-0.13888300088285 -0.020414939349334,-0.010389555806295 -0.020414939349334,0.26228930625497 -0.24223447419864,0.12730066846709"
       id="polygon282" />
    <polygon
       fill="#888888"
       stroke="#000000"
       points="-0.70259025607703,-0.10956681966126 -0.51537249497507,0.0043648525785978 -0.49918896965654,0.24437928389636 -0.68017595310541,0.12540879934202"
       id="polygon284" />
    <polygon
       fill="#FFA500"
       stroke="#000000"
       points="-0.48155663212918,0.025787474064964 -0.27813711393343,0.14957875186818 -0.26934442232581,0.39465994332169 -0.46537310681065,0.26580190538273"
       id="polygon286" />
    <polygon
       fill="#888888"
       stroke="#000000"
       points="-0.24139184674777,0.17285724590871 -0.019572311898468,0.30784588369658 -0.019572311898468,0.55797009201823 -0.23259915514016,0.41793843736221"
       id="polygon288" />
    <polygon
       fill="#FFA500"
       stroke="#000000"
       points="-0.67687496656198,0.16576684053069 -0.49588798311312,0.28473732508503 -0.48089110525928,0.50715283955335 -0.6560433501047,0.38415069918051"
       id="polygon290" />
    <polygon
       fill="#FFA500"
       stroke="#000000"
       points="-0.46322848371637,0.30695545587912 -0.26719979923154,0.43581349381808 -0.25907759614827,0.66220596812605 -0.44823160586253,0.52937097034744"
       id="polygon292" />
    <polygon
       fill="#FFA500"
       stroke="#000000"
       points="-0.23182332941007,0.45988002752827 -0.018796486168384,0.59991168218429 -0.018796486168384,0.83016851261279 -0.2237011263268,0.68627250183624"
       id="polygon294" />
  </g>
  <path
     style="fill:#ffffff;stroke-width:0.012"
     id="path316"
     d="m -0.40448212,-0.08473348 c -0.00201,-0.0023126 -0.004091,-0.0045407 -0.006202,-0.0067582 -0.001368,-0.0013325 -0.002887,-0.0025195 -0.004173,-0.0039284 -9.066e-4,-0.0012121 -0.001802,-0.0023514 -0.003073,-0.0031925 -9.8796e-4,-0.0014859 -0.002697,-0.0021332 -0.00402,-0.0032757 -0.001129,-8.7804e-4 -0.002218,-0.001743 -0.003479,-0.002424 -7.7268e-4,-6.1032e-4 -0.001589,-0.001306 -0.00251,-0.001718 -2.0196e-4,-9e-5 -4.4748e-4,-8.52e-5 -6.2928e-4,-2.1156e-4 -3.2544e-4,-2.262e-4 -5.724e-4,-5.4828e-4 -8.586e-4,-8.2248e-4 -0.001166,-0.001072 -0.00229,-0.002137 -0.003654,-0.002953 -0.001504,-3.8868e-4 -0.002923,-0.001164 -0.004356,-0.0018 -2.2164e-4,-6e-5 -4.5744e-4,-8.28e-5 -6.6504e-4,-1.806e-4 -2.7804e-4,-1.3176e-4 -5.0748e-4,-3.4932e-4 -7.7484e-4,-5.016e-4 -8.7912e-4,-5.0088e-4 -0.001993,-7.9188e-4 -0.002956,-0.001081 -3.0996e-4,-6.6e-5 -6.4248e-4,-6.6e-5 -9.2988e-4,-1.9968e-4 -4.008e-4,-1.8648e-4 -7.2696e-4,-5.034e-4 -0.001098,-7.4388e-4 -0.001082,-7.014e-4 -0.002271,-0.001324 -0.003442,-0.001861 -0.001868,-0.001055 -0.003887,-0.001855 -0.006,-0.002269 -0.001714,-9.4416e-4 -0.003556,-0.001051 -0.00546,-0.001135 -8.5752e-4,-4.4736e-4 -0.001901,-4.1196e-4 -0.002788,-7.3572e-4 -8.0976e-4,-2.9556e-4 -0.001474,-7.392e-4 -0.002319,-9.7236e-4 -8.0064e-4,-2.4648e-4 -0.001786,7.56e-5 -0.002571,-1.8012e-4 -9.0804e-4,-2.964e-4 -0.001961,-0.001068 -0.002909,-0.00145 -7.7808e-4,-3.9444e-4 -0.001677,-2.4252e-4 -0.002489,-4.1532e-4 -9.5952e-4,-2.0412e-4 -0.001877,-5.9256e-4 -0.002851,-7.8612e-4 -0.001746,-3.84e-5 -0.003263,-8.5452e-4 -0.004982,-0.001082 -0.001261,-1.992e-4 -0.002589,6.72e-5 -0.003844,-1.188e-4 -6.7632e-4,-1.008e-4 -0.001318,-3.6324e-4 -0.001981,-5.34e-4 -0.001849,-4.0332e-4 -0.003759,-3.8412e-4 -0.005643,-4.122e-4 -0.002133,-5.58e-6 -0.004266,-1.44e-5 -0.006399,-8.53e-6 -0.002167,2.04e-5 -0.004334,1.053e-5 -0.006501,5.91e-6 -0.002132,1.92e-6 -0.004264,1.062e-5 -0.006396,1.56e-5 -0.001045,-1.9104e-4 -0.001915,2.9484e-4 -0.002903,5.1264e-4 -3.0984e-4,6.84e-5 -6.4092e-4,5.64e-5 -9.3576e-4,1.7364e-4 -5.0172e-4,1.992e-4 -9.1704e-4,5.7588e-4 -0.001409,7.992e-4 -6.4488e-4,5.526e-4 -0.001884,2.52e-5 -0.00254,4.0308e-4 -2.4432e-4,1.4064e-4 -2.4864e-4,5.2404e-4 -4.6212e-4,7.0824e-4 -3.3708e-4,2.9088e-4 -0.001381,5.7396e-4 -0.001763,6.9564e-4 -2.4228e-4,1.8936e-4 -4.6632e-4,4.0476e-4 -7.2696e-4,5.6796e-4 -0.00232,0.001453 7.1664e-4,-6.174e-4 -0.001703,6.5856e-4 -8.1888e-4,7.0716e-4 -3.7176e-4,4.1616e-4 -0.001339,8.7672e-4 0.0103198,-0.005967 0.0206395,-0.0119335 0.0309593,-0.0179003 -0.0104858,0.007873 -0.001414,0.001098 -0.032804,0.0190848 -8.7528e-4,5.016e-4 -0.001953,4.1928e-4 -0.002868,7.5336e-4 -2.9232e-4,1.068e-4 -5.3556e-4,3.1716e-4 -8.0328e-4,4.758e-4 -0.0160985,0.00803 0.0408344,-0.0241077 0.026849,-0.0155478 -0.001084,0.001147 -0.002573,0.002536 -0.003917,0.003366 -7.8852e-4,0.001318 -0.002273,0.00173 -0.003319,0.002723 -2.2104e-4,6.6e-5 -4.728e-4,6.6e-5 -6.63e-4,1.9644e-4 -4.2504e-4,2.9076e-4 -7.8612e-4,0.001155 -0.001093,0.001485 -5.4816e-4,5.898e-4 -0.001417,0.001134 -0.002121,0.001516 -0.002428,0.002097 0.001025,-8.0088e-4 -0.001274,8.7888e-4 -6.612e-4,4.8312e-4 -4.632e-4,6.0636e-4 -0.001104,0.001127 -2.1288e-4,1.7292e-4 -4.6332e-4,2.9376e-4 -7.0128e-4,4.3008e-4 -0.0107874,0.006185 -0.0215828,0.0123559 -0.0323742,0.0185338 0.0760185,-0.0436641 0.005254,-0.003006 -0.001502,8.256e-4 -0.0103037,0.0058438 0.0408244,-0.0240327 0.0308261,-0.0176805 -0.0104972,0.006669 -0.0209905,0.0135119 -0.0323241,0.0186322 -0.0105441,0.0047637 0.0389363,-0.0247757 0.0300643,-0.0173488 -0.001167,9.7968e-4 -0.002334,0.002107 -0.003199,0.003372 -0.001373,0.001094 3.9204e-4,-3.9264e-4 -9.4176e-4,0.001032 -1.4436e-4,1.542e-4 -3.7116e-4,2.1792e-4 -5.082e-4,3.786e-4 -2.0124e-4,2.3616e-4 -2.8572e-4,5.5764e-4 -4.8936e-4,7.9176e-4 -2.0232e-4,2.3244e-4 -4.4652e-4,4.3344e-4 -7.1232e-4,5.8932e-4 -0.0107437,0.006303 -0.0215372,0.0125214 -0.0323058,0.01878205 0.010249,-0.0059293 0.0204979,-0.01185853 0.0307469,-0.01778779 -2.4216e-4,1.7196e-4 -4.6224e-4,3.804e-4 -7.2648e-4,5.1588e-4 -2.5068e-4,1.2852e-4 -5.5896e-4,1.2456e-4 -8.0172e-4,2.6772e-4 -6.7788e-4,3.996e-4 -0.001348,0.001143 -0.001824,0.001753 -0.001012,0.001127 -0.002183,0.002173 -0.002969,0.003471 -2.1216e-4,1.5264e-4 -4.3728e-4,2.8896e-4 -6.366e-4,4.5804e-4 -8.3724e-4,7.1052e-4 -3.0564e-4,5.0736e-4 -0.001252,9.5316e-4 -2.2176e-4,1.044e-4 -4.9356e-4,1.152e-4 -6.8436e-4,2.6892e-4 -4.248e-4,3.4284e-4 -6.576e-4,8.7216e-4 -0.001009,0.00129 -5.4984e-4,0.001468 -0.001879,0.002442 -0.002531,0.003811 -6.9036e-4,5.5776e-4 -8.0712e-4,0.0015417 -0.00131,0.0022071 -1.9044e-4,2.5212e-4 -4.9368e-4,3.9492e-4 -7.3044e-4,6.0408e-4 -8.0532e-4,7.116e-4 -6.3228e-4,5.8044e-4 -0.001306,0.0014817 -0.001002,0.0015297 -0.002223,0.0028651 -0.003067,0.0044962 -1.5384e-4,1.7556e-4 -3.2844e-4,3.3492e-4 -4.6164e-4,5.2668e-4 -1.5384e-4,2.214e-4 -2.1972e-4,5.0076e-4 -3.9456e-4,7.0596e-4 -7.7988e-4,9.156e-4 -3.7188e-4,-1.2768e-4 -0.00104,9.3924e-4 -2.9244e-4,4.6668e-4 -4.7076e-4,9.9828e-4 -7.5792e-4,0.0014683 -1.2588e-4,2.0472e-4 -2.85e-4,3.924e-4 -3.7752e-4,6.1416e-4 -1.3968e-4,3.3504e-4 -1.644e-4,7.1172e-4 -3.1332e-4,0.0010428 -4.5132e-4,0.0010039 -0.001312,0.001604 -0.001772,0.0026869 -9.3096e-4,0.0013692 -0.001625,0.0029221 -0.002078,0.0045216 -2.3196e-4,0.0010298 -9.114e-4,0.0017825 -0.001397,0.0026648 -0.001074,0.00195 4.2456e-4,-2.688e-4 -6.8304e-4,0.001304 -8.4624e-4,8.5056e-4 -9.6072e-4,0.0021424 -0.00146,0.0031866 -2.112e-4,4.416e-4 -7.356e-4,9.7152e-4 -0.001063,0.0013325 -8.4768e-4,0.001246 -0.001854,0.0025158 -0.002334,0.0039695 -4.2372e-4,0.0017261 -7.224e-4,0.0035136 -0.001241,0.005212 -5.832e-4,0.0016133 -9.8964e-4,0.0032753 -0.001471,0.0049261 -3.3384e-4,0.0019127 -7.3668e-4,0.0038087 -0.001093,0.0057186 -1.6404e-4,0.0020125 -5.3436e-4,0.0039798 -8.4756e-4,0.005969 -7.4268e-4,0.0015846 -0.001144,0.0032184 -0.001357,0.0049521 1.7676e-4,0.0021209 -7.932e-4,0.0038788 -0.001397,0.0058283 -5.952e-4,0.0018622 -4.5852e-4,0.0038358 -8.016e-4,0.0057334 -4.2756e-4,0.0018853 -6.5448e-4,0.0038008 -7.3848e-4,0.0057296 -3.8352e-4,0.0018035 -7.5276e-4,0.0035829 -9.1416e-4,0.005424 8.64e-5,0.0019278 -4.4148e-4,0.0037624 -7.5228e-4,0.0056406 -2.814e-4,0.00200266 -2.9628e-4,0.00402762 -3.5712e-4,0.00604509 -3.36e-5,0.00216291 -1.057e-5,0.00432619 4.8e-7,0.00648919 2.4e-5,0.00204374 -4.7676e-4,0.00405307 -7.1988e-4,0.00607964 -4.698e-4,0.00198717 -8.6628e-4,0.00397199 -0.001041,0.00600753 -1.2972e-4,0.0021255 -1.5252e-4,0.0042567 -1.6764e-4,0.0063857 -1.026e-5,0.0020885 1.3464e-4,0.0041662 -2.2656e-4,0.0062309 -4.5924e-4,0.0019071 -5.634e-4,0.0038727 -6.4248e-4,0.0058253 -1.32e-5,0.0021278 -9.4932e-4,0.0041389 -0.001644,0.0061326 -7.3068e-4,0.0018645 -0.001045,0.0038273 -0.001198,0.0058122 -4.236e-4,0.001819 -5.3076e-4,0.003707 -9.4656e-4,0.0055209 -7.0404e-4,0.0018058 -7.5984e-4,0.0037434 -0.001096,0.005628 -4.8804e-4,0.0020499 -7.1064e-4,0.0041327 -8.2068e-4,0.0062322 -7.2e-5,0.0021541 -9.96e-5,0.0043096 -9.96e-5,0.0064649 9.36e-5,0.0018902 -3.9912e-4,0.0037315 -6.546e-4,0.0055909 -2.6916e-4,0.0020585 -2.6244e-4,0.0041409 -2.7492e-4,0.0062133 -2.64e-5,0.0021919 -2.28e-5,0.0043838 -1.053e-5,0.0065758 1.44e-5,0.0021867 -9.47e-6,0.0043732 -1.14e-6,0.00656 2.64e-5,0.0021212 6.15e-6,0.0042422 -3.21e-6,0.0063634 1.7052e-4,0.001989 -2.148e-4,0.0039159 -5.4492e-4,0.0058614 -3.4152e-4,0.002018 -3.5544e-4,0.004074 -3.8304e-4,0.006116 -9.24e-6,0.001373 -6.2e-7,6.6852e-4 -2.76e-5,0.002114 0,0 -0.0327876,0.0166973 -0.0327876,0.0166973 v 0 c -2.04e-5,-0.001448 -1.68e-5,-7.3824e-4 -1.107e-5,-0.00213 1.68e-5,-0.002165 5.28e-5,-0.004329 1.386e-4,-0.006492 9e-5,-9.1164e-4 1.9092e-4,-0.001812 3.9396e-4,-0.002707 1.2492e-4,-5.5068e-4 3.7536e-4,-0.001074 4.422e-4,-0.001635 4.44e-5,-3.72e-4 5.2e-7,-7.4928e-4 7.8e-7,-0.001124 -9.38e-6,-0.00212 -2.88e-5,-0.004239 -3.54e-6,-0.006359 7.7e-6,-0.002184 -1.68e-5,-0.004368 -6.74e-6,-0.006553 7.84e-6,-0.002197 2.45e-6,-0.0043937 -1.2e-5,-0.0065905 1.062e-5,-0.002167 3.6e-5,-0.0043339 7.56e-5,-0.0065005 1.188e-4,-0.0017956 3.2364e-4,-0.0035823 8.9304e-4,-0.0053 -4.2e-7,-0.0021987 -4.44e-5,-0.0043974 2.28e-5,-0.0065956 6.72e-5,-0.0022518 9.48e-5,-0.0045236 5.448e-4,-0.0067388 1.4076e-4,-6.306e-4 3.6648e-4,-0.0012431 4.668e-4,-0.0018815 2.064e-4,-0.0013127 4.46e-6,-0.0026948 4.2624e-4,-0.0039782 1.6128e-4,-4.6176e-4 4.4556e-4,-8.7972e-4 5.6508e-4,-0.001354 3.1188e-4,-0.0012384 1.2468e-4,-0.0026218 6.2652e-4,-0.003833 5.9148e-4,-0.0020396 1.9392e-4,-0.0042968 9.6708e-4,-0.0063284 2.0928e-4,-6.6036e-4 5.0052e-4,-0.001293 7.0608e-4,-0.0019545 3.5892e-4,-0.0011552 3.6204e-4,-0.0023827 0.001391,-0.0032065 4.08e-5,-0.0021105 1.14e-4,-0.0042217 3.3336e-4,-0.0063224 1.566e-4,-7.6152e-4 5.1888e-4,-0.0015762 6.1812e-4,-0.0023364 1.4232e-4,-0.0010897 -1.056e-4,-0.0022306 4.73e-6,-0.0033239 -1.048e-5,-0.002196 -3.72e-5,-0.0043925 5.76e-5,-0.0065875 9.36e-5,-0.0021685 1.4484e-4,-0.0043581 7.7568e-4,-0.006454 5.6856e-4,-0.001752 3.5592e-4,-0.0036765 0.001062,-0.0054045 5.9e-6,-0.0021786 1.8e-5,-0.0043573 7.8e-6,-0.0065359 -2.52e-5,-0.00212926 1.8e-5,-0.00425991 1.5336e-4,-0.00638536 7.2e-5,-9.8232e-4 1.044e-4,-0.0019607 3.396e-4,-0.00292134 1.2384e-4,-5.058e-4 3.9336e-4,-9.7392e-4 4.7556e-4,-0.00148821 5.52e-5,-3.48478e-4 1.92e-5,-7.05598e-4 3e-5,-0.001058398 7.92e-5,-0.001935382 6.24e-5,-0.003931472 6.72e-4,-0.005787682 7.134e-4,-0.00179141 1.8504e-4,-0.00390695 7.4772e-4,-0.00576838 1.092e-4,-5.3724e-4 3.4932e-4,-0.0010438 4.416e-4,-0.0015841 2.3928e-4,-0.0014003 -3.96e-5,-0.0028987 3.24e-4,-0.0042933 1.7436e-4,-0.0010313 2.9844e-4,-0.0021931 7.0644e-4,-0.0031669 1.008e-4,-2.4012e-4 2.5344e-4,-4.5696e-4 4.122e-4,-6.6324e-4 1.362e-4,-1.77e-4 3.9756e-4,-2.6796e-4 4.6764e-4,-4.8e-4 1.08e-4,-3.2688e-4 2.16e-5,-6.8832e-4 3.24e-5,-0.0010324 9.6e-5,-0.0019338 1.128e-4,-0.0040161 8.6376e-4,-0.0058149 9.9192e-4,-0.00131 0.001135,-0.0037344 0.001281,-0.0053255 2.1792e-4,-0.0020106 7.512e-4,-0.0039092 9.12e-4,-0.0059175 1.4532e-4,-9.2604e-4 2.904e-4,-0.0018435 6.276e-4,-0.0027243 9.48e-5,-2.4672e-4 2.6688e-4,-4.6404e-4 3.2916e-4,-7.2072e-4 8.16e-5,-3.3648e-4 6.48e-5,-6.894e-4 9.6e-5,-0.0010342 6.6e-5,-2.7192e-4 1.32e-4,-5.4396e-4 1.98e-4,-8.1588e-4 1.7232e-4,-4.4892e-4 4.7784e-4,-8.4276e-4 6.2328e-4,-0.0013011 3.5712e-4,-0.0011254 2.2872e-4,-0.0024314 9e-4,-0.0034764 1.2012e-4,-0.0012967 1.08e-4,-0.0026963 8.3856e-4,-0.0038365 1.3572e-4,-2.1204e-4 3.6864e-4,-3.5472e-4 4.8816e-4,-5.7636e-4 1.572e-4,-2.9148e-4 2.1876e-4,-6.252e-4 3.2808e-4,-9.378e-4 2.9676e-4,-5.4564e-4 4.9404e-4,-0.0010625 0.001014,-0.0014463 2.0124e-4,-1.4856e-4 5.2068e-4,-1.152e-4 6.8748e-4,-3.012e-4 3.174e-4,-3.5472e-4 8.6712e-4,-0.0020258 8.82e-4,-0.002495 1.104e-4,-2.2176e-4 2.2056e-4,-4.4364e-4 3.3096e-4,-6.654e-4 1.5276e-4,-1.4184e-4 3.5232e-4,-2.46e-4 4.5828e-4,-4.2552e-4 6.1788e-4,-0.0010475 -1.2288e-4,-5.4432e-4 6.4188e-4,-0.0014313 1.4028e-4,-1.626e-4 3.8052e-4,-2.232e-4 5.0844e-4,-3.9564e-4 1.59e-4,-2.142e-4 2.184e-4,-4.8684e-4 3.276e-4,-7.3032e-4 5.5584e-4,-7.4688e-4 5.9712e-4,-0.001516 9.876e-4,-0.0023504 1.14e-4,-2.4432e-4 3.1788e-4,-4.458e-4 4.0368e-4,-7.0152e-4 9.9048e-4,-0.002952 -5.4576e-4,5.1732e-4 5.3136e-4,-0.0017978 5.9868e-4,-7.2888e-4 6.5736e-4,-0.0015281 0.001155,-0.0023188 1.446e-4,-2.2968e-4 3.4308e-4,-4.2048e-4 5.1456e-4,-6.3072e-4 2.112e-4,-1.056e-4 4.9464e-4,-1.2636e-4 6.336e-4,-3.174e-4 1.8204e-4,-2.502e-4 1.656e-4,-5.9628e-4 2.4828e-4,-8.9436e-4 1.152e-4,-2.6268e-4 2.3004e-4,-5.2536e-4 3.4512e-4,-7.8804e-4 1.5072e-4,-2.0532e-4 3.486e-4,-3.8316e-4 4.5216e-4,-6.1572e-4 2.0472e-4,-4.5972e-4 2.7024e-4,-0.0014385 5.8224e-4,-0.0018751 1.2744e-4,-1.7832e-4 4.0896e-4,-1.8528e-4 5.6064e-4,-3.4332e-4 1.812e-4,-1.8876e-4 2.7396e-4,-4.4592e-4 4.1088e-4,-6.6888e-4 0.001456,-0.0011375 0.001794,-0.003138 0.00327,-0.0042926 4.8e-4,-7.7076e-4 9.3948e-4,-0.0022194 0.001667,-0.0027802 2.1324e-4,-1.644e-4 5.5824e-4,-5.16e-5 7.8276e-4,-2.0004e-4 2.7144e-4,-1.7976e-4 6.414e-4,-0.001031 7.686e-4,-0.0012908 6.7968e-4,-6.5208e-4 5.6868e-4,-0.001281 0.001165,-0.0019385 1.5528e-4,-1.7124e-4 4.1004e-4,-2.3376e-4 5.592e-4,-4.1052e-4 0.002217,-0.0026282 -0.001315,9.7092e-4 9.48e-4,-0.0012709 1.284e-4,-2.892e-4 2.5692e-4,-5.784e-4 3.8532e-4,-8.676e-4 1.6572e-4,-2.3388e-4 3.8016e-4,-4.4004e-4 4.9728e-4,-7.0176e-4 1.5588e-4,-3.4824e-4 1.416e-4,-7.5948e-4 3.0996e-4,-0.001102 4.2192e-4,-8.5812e-4 0.001328,-7.6464e-4 0.001841,-0.0015265 2.4408e-4,-4.8e-5 5.2764e-4,-2.95e-6 7.3236e-4,-1.4448e-4 2.1024e-4,-1.4532e-4 2.3304e-4,-4.6404e-4 4.1196e-4,-6.4656e-4 1.5684e-4,-1.5996e-4 4.1448e-4,-1.944e-4 5.7048e-4,-3.5532e-4 1.86e-4,-1.9176e-4 2.4804e-4,-4.806e-4 4.2984e-4,-6.7632e-4 0.001388,-0.0014947 -2.2188e-4,8.8068e-4 0.001046,-0.0011564 0.001322,-0.001116 -8.28e-5,1.8252e-4 0.001113,-0.0013489 1.8528e-4,-2.3736e-4 4.6524e-4,-3.9108e-4 6.438e-4,-6.336e-4 2.1456e-4,-2.9136e-4 2.7108e-4,-6.9132e-4 5.2284e-4,-9.5124e-4 2.0328e-4,-2.0988e-4 5.214e-4,-2.64e-4 7.8216e-4,-3.96e-4 0.0107543,-0.00626 0.0215086,-0.01251991 0.0322629,-0.01877988 -0.0102272,0.005956 -0.0204576,0.0119057 -0.0306815,0.01786697 -2.4348e-4,1.4196e-4 4.7556e-4,-3.1116e-4 7.3992e-4,-4.0896e-4 2.3124e-4,-8.52e-5 5.238e-4,4.78e-6 7.2756e-4,-1.3416e-4 2.076e-4,-1.416e-4 2.2524e-4,-4.596e-4 4.0296e-4,-6.372e-4 0.001355,-0.001354 -2.3148e-4,9.192e-4 9.7452e-4,-9.756e-4 0.001305,-8.1984e-4 -1.5312e-4,2.1024e-4 0.001004,-0.001039 1.6452e-4,-1.7772e-4 4.2756e-4,-2.4444e-4 5.9004e-4,-4.2396e-4 1.9596e-4,-2.166e-4 2.7516e-4,-5.2092e-4 4.6536e-4,-7.4256e-4 0.001473,-0.001716 -2.4672e-4,8.922e-4 0.001132,-0.001356 0.00917,-0.008859 0.023733,-0.0107379 0.0327662,-0.0197364 0.008393,-0.008361 -0.0413076,0.0232005 -0.0307766,0.0177742 0.0110615,-0.0057 0.0213361,-0.0128419 0.0323698,-0.0185951 7.092e-4,-3.6984e-4 -0.0853734,0.0492252 0.001514,-8.4384e-4 -0.0102871,0.005925 -0.0205742,0.0118508 -0.0308613,0.0177764 -2.2956e-4,1.3224e-4 4.4376e-4,-2.9604e-4 6.8892e-4,-3.9624e-4 7.4628e-4,-3.0516e-4 7.1052e-4,1.68e-5 0.001341,-5.5896e-4 0.001402,-0.001282 -3.9288e-4,-1.548e-4 0.001226,-0.001065 0.001263,-0.001314 -7.32e-5,-8.04e-5 0.001412,-0.001015 2.5308e-4,-1.5912e-4 4.2612e-4,-4.362e-4 6.9492e-4,-5.6688e-4 2.5368e-4,-1.2324e-4 5.8008e-4,-3.84e-5 8.2812e-4,-1.7316e-4 5.8812e-4,-3.1836e-4 6.6312e-4,-9.5016e-4 8.5656e-4,-0.001507 0.001793,-9.798e-4 -6.8244e-4,4.7904e-4 0.001045,-9.3936e-4 1.7784e-4,-1.4592e-4 4.4388e-4,-1.4484e-4 6.3216e-4,-2.7708e-4 2.0508e-4,-1.4424e-4 3.0888e-4,-4.1268e-4 5.2644e-4,-5.3724e-4 2.1024e-4,-1.2036e-4 4.7124e-4,-1.128e-4 7.068e-4,-1.686e-4 2.0328e-4,-1.26e-4 4.0644e-4,-2.5188e-4 6.0972e-4,-3.7788e-4 0.001182,-0.001603 -2.3064e-4,1.3512e-4 0.001174,-0.001093 2.2752e-4,-1.9896e-4 3.5712e-4,-4.9548e-4 5.8872e-4,-6.8976e-4 2.2368e-4,-1.8756e-4 5.2752e-4,-2.5944e-4 7.5756e-4,-4.3908e-4 0.001551,-0.001212 -2.4288e-4,-2.3664e-4 0.001478,-0.001066 3.9204e-4,-5.9064e-4 6.294e-4,-0.0011 0.001266,-0.001475 0.0129252,-0.007614 0.0223066,-0.0150347 0.0349031,-0.0198824 0.001005,-2.4648e-4 0.001808,-5.9868e-4 0.002705,-0.001117 2.634e-4,-1.5216e-4 0.001044,-6.2568e-4 7.806e-4,-4.7304e-4 -0.0294836,0.0170967 -0.0412356,0.0240592 -0.030324,0.0175967 0.0118313,-0.006895 0.023442,-0.0151074 0.0360856,-0.0205587 1.7868e-4,-9.48e-5 0.001494,-8.124e-4 0.001706,-8.5692e-4 3.3024e-4,-6.96e-5 6.78e-4,5.88e-5 0.001012,1.2e-5 7.7544e-4,-1.068e-4 0.001463,-6.5136e-4 0.002215,-8.3748e-4 0.001931,-5.1636e-4 0.00397,-4.5972e-4 0.005955,-4.3932e-4 0.002118,4.34e-6 0.004236,1.32e-5 0.006354,1.2e-5 0.002168,-7.18e-6 0.004336,-2.16e-5 0.006505,-5.84e-6 0.00217,5.83e-6 0.004342,-1.56e-5 0.006509,1.176e-4 0.00203,1.368e-4 0.004048,3.5496e-4 0.006027,8.4972e-4 0.001945,2.6724e-4 0.003959,9.12e-5 0.005868,6.75e-4 0.001662,4.7364e-4 0.003309,8.3304e-4 0.005,0.001181 0.001907,5.3148e-4 0.003891,7.8912e-4 0.00568,0.001689 3.6972e-4,1.608e-4 0.001206,5.5536e-4 0.001633,6.2832e-4 2.1936e-4,3.72e-5 4.4616e-4,-3.24e-5 6.6744e-4,-9.46e-6 0.001059,1.092e-4 0.002101,4.2456e-4 0.003095,7.9092e-4 0.001449,5.946e-4 0.002982,9.7392e-4 0.004552,0.001075 0.002008,3.3108e-4 0.00388,9.8388e-4 0.005793,0.00165 0.002214,7.8984e-4 0.004363,0.001755 0.006443,0.002851 0.001674,9.3432e-4 0.003303,0.001932 0.005181,0.002384 0.001592,6.1668e-4 0.003123,0.001325 0.004669,0.002037 0.00158,7.7196e-4 0.003294,0.001306 0.004733,0.00235 0.001261,0.001009 0.002463,0.002072 0.003705,0.003101 0.001399,6.1476e-4 0.002568,0.001649 0.003861,0.002445 0.001239,8.9196e-4 0.002472,0.001776 0.003642,0.002763 0.001439,0.001002 0.002863,0.002026 0.004075,0.003302 0.001204,0.001116 0.00228,0.002316 0.003311,0.003589 0.00136,0.001337 0.002693,0.002702 0.00401,0.004082 0.002096,0.002304 0.004109,0.004688 0.006379,0.006828 0,0 -0.0315364,0.01899404 -0.0315364,0.01899404 z"
     inkscape:connector-curvature="0" />
  <path
     style="fill:#ffffff;stroke-width:0.012"
     id="path322"
     d="m -0.61711814,0.12050264 c -0.001443,-0.003647 -0.002756,-0.007332 -0.004339,-0.0109225 -0.00131,-0.002017 -0.001922,-0.004346 -0.00313,-0.006406 -0.001568,-0.001628 -0.00269,-0.0035072 -0.003768,-0.0054688 -9.1464e-4,-0.001921 -0.001793,-0.0038671 -0.002762,-0.0057607 -8.73e-4,-0.001887 -0.001414,-0.0038281 -0.002504,-0.0056127 -0.001235,-0.001736 -0.002234,-0.0034437 -0.002823,-0.0055073 -3.372e-4,-0.0018258 -0.001102,-0.0034871 -0.001893,-0.0051479 -6.5652e-4,-0.0017243 -0.001223,-0.003474 -0.002258,-0.0050056 -8.5068e-4,-0.0014759 -0.002041,-0.0026483 -0.002818,-0.0041649 -7.8492e-4,-0.0014888 -0.001531,-0.0030089 -0.002184,-0.0045617 -7.3008e-4,-0.0019408 -0.00122,-0.0039357 -0.00155,-0.0059799 -1.2816e-4,-0.0017941 -5.754e-4,-0.0034956 -0.001271,-0.0051428 -7.2288e-4,-0.0019324 -0.001821,-0.003687 -0.002656,-0.0055695 -7.1976e-4,-0.0021029 -0.001109,-0.0042928 -0.001792,-0.0064115 -9.762e-4,-0.0017418 -0.001454,-0.0036365 -0.001961,-0.0055469 -3.7836e-4,-0.0014557 -0.001485,-0.0025787 -0.002348,-0.003778 -0.001041,-0.0016708 -0.001468,-0.0036312 -0.001994,-0.0055094 -1.8072e-4,-0.0015077 -9.2508e-4,-0.0027664 -0.001555,-0.0041061 -7.8468e-4,-0.0013105 -0.001391,-0.0027271 -0.002156,-0.0040491 -7.4424e-4,-0.0012984 -0.002059,-0.0020718 -0.002975,-0.0032818 -9.9384e-4,-0.0012925 -0.001895,-0.00268227 -0.002825,-0.00403352 -9.7716e-4,-9.642e-4 -0.001348,-0.00196499 -0.002747,-0.00231066 -0.001643,-9.9336e-4 -0.002807,-0.00250535 -0.003879,-0.00406584 -0.001011,-0.00106452 -0.001668,-0.00254933 -0.002982,-0.0032787 0,0 0.0312379,-0.01959295 0.0312379,-0.01959295 v 0 c 0.001316,0.0012624 0.002459,0.0026614 0.003526,0.0041392 8.0736e-4,0.001107 0.0017,0.0020634 0.002983,0.0026195 0.001447,0.0010424 0.002621,0.0023403 0.003676,0.0037755 8.8596e-4,0.00127577 0.001692,0.00261395 0.002692,0.00380369 0.001117,0.00124142 0.002577,0.00222535 0.003275,0.00380282 7.926e-4,0.00142841 0.001471,0.002919782 0.002329,0.00431469 6.738e-4,0.00154054 0.001647,0.00297435 0.001812,0.00469658 3.444e-4,0.00145478 7.1472e-4,0.00295727 0.001356,0.00429744 0.001111,0.0015314 0.002393,0.0030828 0.002925,0.004916 5.6424e-4,0.0018547 8.2008e-4,0.0037785 0.001859,0.0054751 6.4176e-4,0.0020136 0.001247,0.0040279 0.001677,0.0060965 7.5228e-4,0.0018913 0.001907,0.0035954 0.002585,0.0055219 3.408e-4,7.1928e-4 7.596e-4,0.0014048 0.001038,0.0021505 4.542e-4,0.0012165 5.6112e-4,0.0026425 7.29e-4,0.0039132 1.9728e-4,0.0017809 5.898e-4,0.0034689 0.00122,0.0051445 5.4132e-4,0.0014741 0.00128,0.0028826 0.002002,0.0042733 6.8508e-4,0.0013653 0.001946,0.0024034 0.002585,0.0038125 0.001111,0.0017043 0.001864,0.0035393 0.002512,0.0054689 8.8572e-4,0.0018837 0.001785,0.0037484 0.002227,0.0058003 3.3972e-4,0.0017458 0.001323,0.0030465 0.002265,0.0045338 0.001141,0.0018713 0.001875,0.0038285 0.002637,0.0058622 9.5016e-4,0.0018719 0.001854,0.0037703 0.002718,0.0056838 0.001023,0.001926 0.002261,0.0036435 0.003644,0.0053375 0.0014,0.0022677 0.001977,0.0046273 0.003228,0.0069729 0.001424,0.0036082 0.002596,0.0073515 0.004485,0.01074467 0,0 -0.0320528,0.018058 -0.0320529,0.0180578 z"
     inkscape:connector-curvature="0" />
  <path
     style="fill:#ffffff;stroke-width:0.012"
     id="path324"
     d="m -0.61984752,0.12042316 c 9.3732e-4,-0.003118 0.001212,-0.006373 0.00183,-0.009557 5.7024e-4,-0.002301 5.892e-4,-0.004688 9.9372e-4,-0.00701 3.7464e-4,-0.001923 0.001073,-0.003741 0.001457,-0.0056635 3.336e-4,-0.0014352 4.2684e-4,-0.0029855 8.5572e-4,-0.0043974 7.32e-5,-2.4084e-4 7.812e-4,-0.0016278 9.0372e-4,-0.0018718 9.2892e-4,-0.0020193 0.001683,-0.0041002 0.002095,-0.0062873 2.2968e-4,-0.0019811 7.95e-4,-0.0038957 0.001086,-0.0058673 1.5408e-4,-0.0020361 4.7148e-4,-0.0040494 8.742e-4,-0.0060512 1.6116e-4,-7.0836e-4 8.52e-4,-0.0010999 0.001169,-0.0017057 3.4236e-4,-6.5496e-4 5.64e-4,-0.0012546 9.792e-4,-0.0018838 1.176e-4,-2.0976e-4 2.7396e-4,-4.0212e-4 3.5196e-4,-6.294e-4 1.2684e-4,-3.7008e-4 1.3476e-4,-7.7352e-4 2.5656e-4,-0.0011453 3.8532e-4,-0.0011762 0.001031,-0.0022004 0.001798,-0.0031554 0.001205,-0.0013931 7.3836e-4,-0.0027334 0.002094,-0.0040963 7.5048e-4,-0.0014235 0.001293,-0.0030367 0.002365,-0.0042543 5.3112e-4,-0.0016782 0.002399,-0.0020907 0.00338,-0.0033352 8.2572e-4,-5.9676e-4 0.001304,-0.0015071 0.001946,-0.0022656 6.2712e-4,-7.4052e-4 0.00128,-0.0012538 0.001819,-0.0020739 1.7364e-4,-1.9632e-4 3.7476e-4,-3.7152e-4 5.208e-4,-5.8908e-4 1.938e-4,-2.8884e-4 2.862e-4,-6.3984e-4 4.92e-4,-9.2028e-4 6.7164e-4,-9.1524e-4 0.001637,-0.0015731 0.00255,-0.0022204 0.001241,-0.0016229 0.002791,-0.0030097 0.003906,-0.004726 6.798e-4,-0.0013635 0.002019,-0.0021015 0.003019,-0.0031546 5.2224e-4,-5.4984e-4 9.0828e-4,-0.0012147 0.001363,-0.0018217 0.001147,-0.0013726 0.00202,-0.002918 0.003335,-0.0041402 9.9972e-4,-0.0020309 0.002724,-0.0035705 0.004293,-0.005159 0.001399,-0.0015171 0.002944,-0.0029511 0.004178,-0.0046061 0.001031,-2.7096e-4 0.001001,-0.001653 0.001826,-0.0021464 0.0106957,-0.0063918 0.0222358,-0.01147588 0.0322783,-0.018851596 0.009546,-0.007011034 -0.0411541,0.023465896 -0.03078,0.017751166 0.0108881,-0.0059979 0.0215483,-0.01240055 0.0323224,-0.018600814 9.048e-4,-5.16e-5 0.001402,-6.6036e-4 0.002193,-0.001004876 -0.0103371,0.00595512 -0.0206618,0.01193176 -0.0310113,0.01786536 -3.8988e-4,2.2356e-4 7.6512e-4,-4.8504e-4 0.001188,-6.3768e-4 0.009465,-0.00907846 0.001507,-0.0015228 0.0327793,-0.01923434 5.4156e-4,-3.0672e-4 0.002322,-3.72e-5 0.002989,-1.8696e-4 2.7324e-4,-6.12e-5 5.0676e-4,-2.388e-4 7.6008e-4,-3.582e-4 2.6724e-4,-8.4e-5 5.6088e-4,-1.092e-4 8.016e-4,-2.5284e-4 2.1972e-4,-1.3092e-4 3.3552e-4,-3.912e-4 5.3916e-4,-5.4612e-4 4.2984e-4,-3.2724e-4 0.002278,-0.00107628 0.001406,-5.7024e-4 -0.0322849,0.01873811 -0.0402502,0.02527662 -0.0303019,0.01719118 0.0118442,0.0054302 0.0207737,-0.01654806 0.0333234,-0.01897916 3.3936e-4,-6.6e-5 6.9732e-4,-4.68e-5 0.001025,-1.5672e-4 2.7696e-4,-9.36e-5 4.9248e-4,-3.1788e-4 7.566e-4,-4.4304e-4 6.5256e-4,-3.0924e-4 9.75e-4,-3.3564e-4 0.001676,-4.8636e-4 6.2904e-4,-2.376e-4 0.001303,3.09e-6 0.001939,-1.188e-4 2.9448e-4,-5.64e-5 5.4732e-4,-2.4672e-4 8.3052e-4,-3.4536e-4 9.1152e-4,-3.1764e-4 0.001744,-3.9384e-4 0.002619,-8.2272e-4 9.39e-4,-1.5888e-4 0.001523,-8.1864e-4 0.002343,-0.0012393 0,0 -0.0288455,0.02298535 -0.0288455,0.02298535 v 0 c -8.6448e-4,3.8196e-4 -0.001735,5.2548e-4 -0.002633,8.1924e-4 -0.001821,3.1932e-4 -0.003674,6.75e-4 -0.005392,0.0013404 -8.0424e-4,3.7188e-4 -0.001601,5.7108e-4 -0.002415,8.8236e-4 -5.3052e-4,2.028e-4 -0.001119,6.4056e-4 -0.001582,9.5424e-4 0.0102287,-0.0059461 0.0204573,-0.01189213 0.030686,-0.01783819 -0.0117088,0.00628859 -4.3176e-4,2.21282e-4 -0.0330231,0.01911233 -3.9276e-4,2.2764e-4 -8.844e-4,5.4396e-4 -0.001335,6.5004e-4 -5.5836e-4,1.3152e-4 -0.001164,-3.05e-6 -0.001698,2.7924e-4 -9.3948e-4,7.68e-5 -0.001766,2.2188e-4 -0.002599,7.0164e-4 -2.4216e-4,1.3944e-4 -9.234e-4,6.2832e-4 -6.8184e-4,4.8792e-4 0.0283551,-0.01648828 0.0410387,-0.0243044 0.0302793,-0.01767917 -5.7492e-4,8.7336e-4 -2.0172e-4,5.25e-4 -0.001049,0.00101616 -0.0109512,0.00634721 -0.0212031,0.01409422 -0.0328545,0.01904011 -2.5056e-4,1.068e-4 -5.3604e-4,1.188e-4 -7.8156e-4,2.3688e-4 -2.436e-4,1.164e-4 -4.4568e-4,3.0492e-4 -6.6864e-4,4.5732e-4 0.0102716,-0.0059311 0.0410449,-0.023795588 0.0308147,-0.01779328 -0.0107257,0.00629306 -0.0208967,0.0137084 -0.0323015,0.01866561 -0.0108537,0.0047177 0.0204514,-0.01191576 0.0306368,-0.01794205 6.3936e-4,-3.7824e-4 -0.003745,0.00158508 -0.001966,0.0016926 -0.001431,0.00101664 1.4292e-4,-2.0412e-4 -0.001209,0.00123007 -2.2044e-4,2.3388e-4 -5.2272e-4,3.8028e-4 -7.4292e-4,6.1428e-4 -2.6316e-4,2.7984e-4 -4.3908e-4,6.3312e-4 -6.9744e-4,9.1728e-4 -0.00227,0.0024969 5.7948e-4,-0.00107244 -0.001712,0.0018968 -0.001463,0.0014543 -0.002921,0.0029137 -0.004429,0.00432 -7.0428e-4,0.0018258 -0.002348,0.0028633 -0.003283,0.0045706 -2.7396e-4,3.2328e-4 -0.00119,0.0013802 -0.001411,0.0017403 -2.3136e-4,3.768e-4 -3.3744e-4,8.2416e-4 -5.856e-4,0.0011902 -6.7332e-4,9.93e-4 -7.7496e-4,6.996e-4 -0.001652,0.0013813 -2.4552e-4,1.908e-4 -4.4904e-4,4.302e-4 -6.7356e-4,6.4536e-4 -9.7272e-4,9.8412e-4 -0.001539,0.0022569 -0.002482,0.0032831 -2.2872e-4,2.4876e-4 -5.3832e-4,4.1532e-4 -7.6272e-4,6.6804e-4 -2.3664e-4,2.6664e-4 -4.0668e-4,5.8572e-4 -6.1008e-4,8.7864e-4 -2.9796e-4,5.5044e-4 -5.4384e-4,0.0011594 -0.001053,0.0015657 -2.112e-4,1.6836e-4 -5.028e-4,2.1072e-4 -7.2072e-4,3.7032e-4 -2.322e-4,1.7016e-4 -3.726e-4,4.5048e-4 -6.1392e-4,6.0744e-4 -2.2476e-4,1.4628e-4 -5.5284e-4,1.044e-4 -7.5348e-4,2.8236e-4 -2.268e-4,2.01e-4 -3.0252e-4,5.2524e-4 -4.5384e-4,7.8792e-4 -0.001204,0.0012409 -3.12e-5,-8.52e-5 -0.001099,0.0015686 -7.194e-4,0.0011146 -0.002017,0.0017068 -0.002507,0.0030095 -7.3512e-4,6.648e-4 -7.5936e-4,0.0014064 -0.001479,0.0019535 -2.082e-4,1.5816e-4 -4.9548e-4,1.8216e-4 -7.1268e-4,3.2772e-4 -0.00119,7.9752e-4 5.04e-5,4.2672e-4 -0.001337,6.9012e-4 -0.001433,0.0022349 5.9316e-4,-7.3944e-4 -9.6888e-4,0.0010201 -1.7736e-4,1.998e-4 -2.3232e-4,4.86e-4 -3.9684e-4,6.9648e-4 -1.4556e-4,1.8636e-4 -3.8952e-4,2.8452e-4 -5.2236e-4,4.8012e-4 -1.6356e-4,2.4096e-4 -2.3184e-4,5.3436e-4 -3.4776e-4,8.016e-4 -1.4844e-4,2.0508e-4 -2.9676e-4,4.1016e-4 -4.452e-4,6.1536e-4 -4.8972e-4,0.0021506 -0.001148,0.0011939 -0.001562,0.0024159 -1.08e-4,3.1704e-4 -9.84e-5,6.6288e-4 -1.7004e-4,9.8976e-4 -7.08e-5,3.2124e-4 -1.7184e-4,6.3492e-4 -2.5788e-4,9.5244e-4 -2.8224e-4,6.6216e-4 -3.8172e-4,0.0010524 -8.664e-4,0.0015951 -1.8e-4,2.0148e-4 -4.47e-4,3.1464e-4 -6.1932e-4,5.2284e-4 -1.9152e-4,2.3136e-4 -2.7372e-4,5.3844e-4 -4.566e-4,7.7664e-4 -1.5036e-4,1.9584e-4 -4.4268e-4,2.8404e-4 -5.3412e-4,5.1348e-4 -1.3164e-4,3.3024e-4 -6.24e-5,7.0824e-4 -9.36e-5,0.0010624 -1.3872e-4,5.3952e-4 -2.1492e-4,0.0010272 -5.1744e-4,0.0015065 -1.128e-4,1.782e-4 -3.312e-4,2.802e-4 -4.2276e-4,4.7004e-4 -3.4548e-4,7.1592e-4 -2.4792e-4,0.0015956 -9.8832e-4,0.0021195 -1.926e-4,9.24e-5 -4.1976e-4,1.338e-4 -5.778e-4,2.7768e-4 -6.5868e-4,5.9928e-4 -0.001006,0.0034335 -0.001038,0.004338 -1.4208e-4,0.0020555 -4.212e-4,0.0040946 -0.001135,0.0060409 -2.5284e-4,0.0024659 -6.4788e-4,0.0048489 -0.001599,0.0071458 -1.77e-4,4.7064e-4 -5.2512e-4,0.0015057 -8.4072e-4,0.0019343 -1.5408e-4,2.0916e-4 -4.704e-4,2.796e-4 -5.8848e-4,5.1096e-4 -4.416e-4,8.6568e-4 -1.926e-4,0.0021135 -7.3896e-4,0.002967 -1.6152e-4,0.0014262 -2.7612e-4,0.0029798 -7.4856e-4,0.0043461 -8.4e-5,2.4204e-4 -2.6184e-4,4.4424e-4 -3.4548e-4,6.8628e-4 -9.6e-5,2.7936e-4 -1.2732e-4,5.7732e-4 -1.9092e-4,8.6592e-4 -1.6884e-4,5.5848e-4 -4.35e-4,0.0010902 -5.4624e-4,0.001663 -3.3828e-4,0.0017409 -1.9572e-4,0.0035897 -6.978e-4,0.0053121 -6.1896e-4,0.0031799 -0.00124,0.0063536 -0.001642,0.009575 0,0 -0.0331597,0.0159923 -0.0331597,0.0159923 z"
     inkscape:connector-curvature="0" />
</svg>
